# xmcd CD database file
#
# Track frame offsets:
#	150
#	29529
#	53827
#	88435
#	115570
#	146619
#	191409
#	216959
#
# Disc length: 3047 seconds
#
# Revision: 1
# Processed by: cddbd v1.5.2PL0 Copyright (c) Steve Scherf et al.
# Submitted via: CDex 1.51
#
DISCID=720be508
DTITLE=The Devin Garramone Band - Nite Blues
DYEAR=2004
DGENRE=Jazz
TTITLE0=Bear Hug
TTITLE1=Walkin Taller
TTITLE2=Bird Groove
TTITLE3=Attitudinal
TTITLE4=Wiggle-Waggle
TTITLE5=Bulls Eye
TTITLE6=Maps Blues
TTITLE7=Move It
EXTD=YEAR: 2004
EXTT0=
EXTT1=
EXTT2=
EXTT3=
EXTT4=
EXTT5=
EXTT6=
EXTT7=
PLAYORDER=
